# xmcd
#
# Track frame offsets: 
#        150
#        22265
#        43537
#        63887
#        91962
#        113587
#        133632
#        156045
#        177590
#        198265
#        223102
#        243325
#        264630
#
# Disc length: 3803 seconds
#
# Revision: 15
# Processed by: cddbd v1.5.2PL0 Copyright (c) Steve Scherf et al.
# Submitted via: ExactAudioCopy v1.3
#
DISCID=b50ed90d
DTITLE=Justin Timberlake - Justified
DYEAR=2002
DGENRE=Pop
TTITLE0=Señorita
TTITLE1=Like I Love You
TTITLE2=(Oh No) What You Got
TTITLE3=Take It From Here
TTITLE4=Cry Me A River
TTITLE5=Rock Your Body
TTITLE6=Nothin' Else
TTITLE7=Last Night
TTITLE8=Still On My Brain
TTITLE9=(And She Said) Take Me Now
TTITLE10=Right For Me
TTITLE11=Let's Take A Ride
TTITLE12=Never Again
EXTD=
EXTT0=
EXTT1=
EXTT2=
EXTT3=
EXTT4=
EXTT5=
EXTT6=
EXTT7=
EXTT8=
EXTT9=
EXTT10=
EXTT11=
EXTT12=
PLAYORDER=
